# xmcd CD database file
#
# Track frame offsets:
#	150
#	31143
#	43477
#	69435
#	90367
#	123037
#	156269
#	189228
#	230928
#
# Disc length: 3349 seconds
#
# Revision: 0
# Processed by: cddbd v1.5PL3 Copyright (c) Steve Scherf et al.
# Submitted via: CDex 1.51
#
DISCID=6f0d1309
DTITLE=Grey Ghost - How To Create Words
DYEAR=2003
DGENRE=Jazz
TTITLE0=Spitzacolli
TTITLE1=Splendor
TTITLE2=Horns and Organ
TTITLE3=Hand Down
TTITLE4=When You Say Go, Leave
TTITLE5=Command Control
TTITLE6=Unheard, Other Bands Practice
TTITLE7=Spool
TTITLE8=Keep On
EXTD=YEAR: 2003
EXTT0=
EXTT1=
EXTT2=
EXTT3=
EXTT4=
EXTT5=
EXTT6=
EXTT7=
EXTT8=
PLAYORDER=
